<svg xmlns="http://www.w3.org/2000/svg" xmlns:xlink="http://www.w3.org/1999/xlink" viewBox="0 0 1080 1080"><style><![CDATA[.L{fill:#fff}.M{fill:#e27a15}.N{opacity:.7}.O{stroke-miterlimit:10}]]></style><linearGradient id="A" gradientUnits="userSpaceOnUse" x1="11.716" y1="11.716" x2="1068.284" y2="1068.284"><stop offset="0" stop-color="#c02e22"/><stop offset=".216" stop-color="#ce5b22"/><stop offset=".481" stop-color="#df8a1e"/><stop offset=".71" stop-color="#edac12"/><stop offset=".89" stop-color="#f7c000"/><stop offset="1" stop-color="#fac800"/></linearGradient><path d="M1040 1080H40c-22.09 0-40-17.91-40-40V40C0 17.91 17.91 0 40 0h1000c22.09 0 40 17.91 40 40v1000c0 22.09-17.91 40-40 40z" fill="url(#A)"/><g fill="#f3c141"><path d="M42.328 1046.045c-3.568 0-5.47-1.97-5.503-2.002 0 .935-.7 1.4-1.468 1.4-.7 0-1.4-.467-1.4-1.4v-20.88a1.35 1.35 0 0 1 1.401-1.434c.767 0 1.468.467 1.468 1.4v6.238c1.334-1.368 3.168-2.17 5.503-2.17 5.37 0 8.373 4.403 8.373 9.406 0 5.037-3.002 9.44-8.373 9.44zm0-16c-3.335 0-5.503 2.602-5.503 6.57 0 4.003 2.168 6.604 5.503 6.604s5.504-2.602 5.504-6.604c0-3.97-2.168-6.57-5.504-6.57zm25.555 8.037h-12.34c.467 3.136 2.468 5.137 5.403 5.137 1.5 0 3.002-.533 3.97-1.734.3-.333.634-.533 1.034-.533.734 0 1.5.667 1.5 1.468 0 .4-.1.7-.8 1.4-1.5 1.468-3.57 2.235-5.704 2.235-5.37 0-8.372-4.437-8.372-9.44 0-4.97 3.002-9.406 8.372-9.406 5.437 0 8.34 4.437 8.34 9.406 0 .734-.534 1.468-1.4 1.468zm-6.937-8.038c-3.136 0-4.97 2.3-5.403 5.17H66.35c-.467-3.202-2.468-5.17-5.403-5.17zM88 1045.478c-1.834 0-2.668-1.3-2.97-1.9-1.334 1.468-3.27 2.47-5.87 2.47-5.437 0-8.372-4.47-8.372-9.44s3.002-9.406 8.372-9.406c2.335 0 4.203.834 5.504 2.202v-.134c0-.367.133-1.5 1.4-1.5.7 0 1.468.367 1.468 1.4v12.875c0 .434.3.6.467.6.935 0 1.435.667 1.435 1.434a1.37 1.37 0 0 1-1.435 1.401zm-8.84-15.443c-3.336 0-5.504 2.602-5.504 6.57 0 4.003 2.168 6.604 5.504 6.604 3.37 0 5.504-2.602 5.504-6.604 0-3.97-2.135-6.57-5.504-6.57z"/><use xlink:href="#C"/><path d="M115.158 1045.478h-.567c-3.17 0-4.37-1.668-4.37-4.403V1030.6h-1c-.8 0-1.435-.634-1.435-1.4 0-.8.634-1.435 1.4-1.435h1v-4.637c0-.934.7-1.4 1.435-1.4s1.4.467 1.4 1.4v4.637h2.135c.934 0 1.4.768 1.4 1.4 0 .8-.533 1.434-1.4 1.434h-2.135v10.774c0 .934.333 1.268 1.268 1.268h.833c.868 0 1.435.634 1.435 1.4 0 .8-.533 1.435-1.4 1.435zm4.604-20.415a2.402 2.402 0 1 1 0-4.803 2.402 2.402 0 1 1 0 4.803zm0 20.414c-.733 0-1.467-.5-1.467-1.4V1029.2c0-.935.733-1.435 1.467-1.435a1.37 1.37 0 0 1 1.401 1.435v14.876c0 .935-.7 1.4-1.4 1.4zm10.376-14.877h-1.5v13.442c0 .935-.7 1.4-1.468 1.4-.7 0-1.4-.467-1.4-1.4V1030.6h-1.37c-.9 0-1.4-.667-1.4-1.4 0-.768.5-1.435 1.4-1.435h1.367v-2.27c0-2.135 1.77-3.77 3.836-3.77.968 0 1.468.667 1.468 1.434 0 .7-.5 1.4-1.468 1.4-.566 0-.967.434-.967.9v2.302h1.5c.967 0 1.468.667 1.468 1.435 0 .733-.5 1.4-1.468 1.4z"/><use xlink:href="#C" x="42.068"/><path d="M154.725 1045.544c-1.802 0-3.336-1.534-3.336-3.402v-18.98c0-.967.7-1.434 1.435-1.434s1.435.467 1.435 1.4v19.013c0 .4.3.567.467.567.934 0 1.435.667 1.435 1.435 0 .733-.5 1.4-1.435 1.4zm15.37-.066v-1.264c1.886-.237 2.046-.437 2.046-3.157v-6.7c0-2.8-1.248-4.017-3.064-4.017-1.237 0-2.345.6-3.47 1.493v9.476c0 2.527.187 2.658 2.06 2.896v1.264h-8.968v-1.264c2.254-.33 2.5-.4 2.5-3v-8.2c0-2.446-.303-2.565-2.185-2.922v-1.184c2.173-.292 4.63-.807 6.653-1.533l-.052 2.95 2.6-1.745c1.16-.713 2-1.086 3.16-1.086 3.194 0 5.2 2.338 5.2 6.3v7.5c0 2.54.237 2.657 2.277 2.92v1.264h-8.74zm23.9-3.703c-2.458 3.427-5.488 4.178-7.014 4.178-5.142 0-8.124-3.936-8.124-8.594 0-2.745 1.183-5.396 2.832-7.062 1.74-1.8 3.945-2.814 6.082-2.814 3.73 0 6.396 3.126 6.37 6.347-.014.715-.08 1.277-.612 1.4-.767.184-6.17.5-10.318.647.062 4.587 2.717 6.74 5.556 6.74 1.572 0 3.104-.597 4.543-1.866l.686 1.014zm-7.07-12.7c-1.667 0-3.167 1.807-3.516 4.963l5.486-.118c.6-.026.848-.146.848-.792.04-2.022-1.037-4.053-2.818-4.053zm34.284.145c-1.943.343-2.248.624-3.105 2.765-1.33 3.462-3.102 8.53-4.934 13.94h-1.512l-4.65-11.46-4.55 11.46h-1.472l-4.685-14.192c-.687-1.985-.94-2.274-2.855-2.512v-1.25h9.397v1.25c-2.325.345-2.535.672-2.058 2.133l2.52 8.214c1.507-3.68 2.988-7.62 4.327-11.424h1.456c1.4 3.76 2.986 7.702 4.573 11.568.742-2.107 2.062-5.964 2.557-8.108.412-1.674-.008-2.078-2.753-2.383v-1.25h7.742v1.25zm9.4 3.746c-.92-2.606-2.155-3.984-4.2-3.984-1.206 0-2.225.86-2.225 2.266 0 1.497 1.046 2.264 3.16 3.216 3.278 1.496 5.3 2.787 5.3 5.736 0 3.85-3.6 5.764-6.945 5.764-2.06 0-4.088-.737-4.92-1.16l-.662-4.892 1.252-.224c.8 2.5 2.33 4.75 4.976 4.75 1.505 0 2.438-.952 2.438-2.28 0-1.423-.76-2.333-3.092-3.467-2.67-1.295-5.107-2.64-5.107-5.775 0-3.046 2.533-5.42 6.565-5.42 1.818 0 3.242.396 4.112.567l.62 4.577-1.25.328z"/></g><g fill="#cc6615"><path d="M716.182 1046.357c-1.2 0-3.22-.42-3.92-1.58-.08-.12-.08-.22-.08-.3 0-.32.28-.602.58-.602.12 0 .32.102.44.28.72.88 2 1.06 2.98 1.06 1.94 0 2.92-.64 2.92-1.94 0-3.02-6.562-1.42-6.562-5.422 0-2.02 2.02-2.8 3.84-2.8 1.04 0 2.64.36 3.44 1.16.12.12.18.26.18.38a.65.65 0 0 1-.62.6c-.12 0-.26-.04-.38-.16-.62-.6-1.74-.84-2.62-.84-1.76 0-2.7.682-2.7 1.66 0 2.8 6.562 1.32 6.562 5.422 0 2.28-2 3.08-4.06 3.08z"/><use xlink:href="#D"/><path d="M742.683 1045.98c-.28 0-.58-.2-.58-.56v-.64c-.84.98-2.06 1.54-3.42 1.54-2.48 0-4.56-2.08-4.56-4.56v-5.842c0-.36.3-.56.58-.56.26 0 .56.2.56.56v5.842c0 1.9 1.52 3.42 3.42 3.42s3.42-1.52 3.42-3.42v-5.842c0-.36.3-.56.58-.56.26 0 .56.2.56.56v9.502a.56.56 0 0 1-.561.561z"/><use xlink:href="#E"/><use xlink:href="#F"/><path d="M772.402 1041.236H764.1c.18 2.28 1.66 3.94 3.84 3.94 1.08 0 2.36-.48 2.94-1.38.14-.22.3-.28.48-.28.3 0 .62.24.62.54 0 .18 0 .22-.38.658-.92 1.082-2.26 1.602-3.66 1.602-3.22 0-5.02-2.64-5.02-5.662 0-3 1.8-5.64 5.02-5.64s5.02 2.66 5.02 5.64c0 .3-.28.58-.56.58zm-4.46-5.08c-2.4 0-3.66 1.84-3.84 3.94h7.7c-.18-2.28-1.66-3.94-3.86-3.94zm8.438 3.26c-.64 0-1.16-.5-1.16-1.14s.52-1.14 1.16-1.14c.62 0 1.12.5 1.12 1.14s-.5 1.14-1.12 1.14zm0 6.563c-.64 0-1.16-.5-1.16-1.14s.52-1.14 1.16-1.14c.62 0 1.12.5 1.12 1.14s-.5 1.14-1.12 1.14zm11.14.001h-2.28c-.36 0-.58-.3-.58-.56a.58.58 0 0 1 .58-.58h.56v-11.982h-.56c-.36 0-.58-.28-.58-.56s.22-.56.58-.56h2.28c.36 0 .56.28.56.56s-.2.56-.56.56h-.58v11.982h.58c.36 0 .56.3.56.58 0 .26-.2.56-.56.56z"/><use xlink:href="#G"/><use xlink:href="#H"/><use xlink:href="#I"/><use xlink:href="#E" x="74.178"/><use xlink:href="#G" x="36.38"/><use xlink:href="#J"/><use xlink:href="#H" x="49.22"/><path d="M858.1 1033.436c-.64 0-1.14-.5-1.14-1.14s.5-1.14 1.14-1.14 1.14.5 1.14 1.14-.5 1.14-1.14 1.14zm0 12.543c-.28 0-.58-.18-.58-.56v-9.502c0-.36.28-.56.58-.56.26 0 .56.18.56.56v9.502c0 .36-.26.56-.56.56z"/><use xlink:href="#D" x="139.158"/><use xlink:href="#G" x="82.98"/><use xlink:href="#J" x="46.6"/><path d="M900.06 1046.098c-1.08 0-1.98-1-1.98-2.12v-11.684c0-.36.3-.56.58-.56.26 0 .56.2.56.56v11.684c0 1.28 1.42.54 1.42 1.44 0 .34-.24.68-.58.68zm16.76-.118h-8.882a.61.61 0 0 1-.58-.561v-13.123c0-.3.28-.56.58-.56h8.882a.55.55 0 0 1 .58.561.55.55 0 0 1-.58.561h-8.32v4.92h6.1a.55.55 0 0 1 .58.561c0 .28-.2.58-.56.58h-6.12v5.922h8.32c.38 0 .58.3.58.58a.55.55 0 0 1-.58.561z"/><use xlink:href="#G" x="129.3"/><use xlink:href="#I" x="123.258"/><use xlink:href="#E" x="197.438"/><use xlink:href="#K"/><use xlink:href="#L"/><path d="M988.36 1045.98c-.2 0-.42-.12-.52-.34l-1.28-3.082h-7.2l-1.28 3.082a.56.56 0 0 1-.501.34c-.3 0-.58-.22-.58-.54 0-.1 0-.16.04-.26l5.4-13.104c.1-.238.34-.38.58-.38.2 0 .38.12.48.38l5.4 13.104a.59.59 0 0 1 .04.26c0 .32-.28.54-.58.54zm-5.4-12.184l-3.14 7.623h6.3l-3.16-7.623z"/><use xlink:href="#K" x="40.558"/><use xlink:href="#I" x="194.798"/><use xlink:href="#G" x="224.578"/><use xlink:href="#F" x="274.158"/><use xlink:href="#L" x="74.998"/></g><defs><path id="B" d="M100.752 944.776z"/><path id="C" d="M104.714 1045.51c-.633 0-1.267-.367-1.4-1.1-1.334 1.034-2.97 1.668-4.804 1.668-4.136 0-7.604-3.436-7.604-7.605v-9.24a1.37 1.37 0 0 1 1.4-1.435c.768 0 1.468.5 1.468 1.4v9.272c0 2.602 2.168 4.77 4.736 4.77 2.603 0 4.77-2.17 4.77-4.77v-9.24c0-1.034.667-1.468 1.4-1.468.768 0 1.435.5 1.435 1.435v14.9c0 .934-.667 1.4-1.4 1.4z"/><path id="D" d="M726.902 1046.318c-3.22 0-5.02-2.64-5.02-5.662 0-3 1.8-5.64 5.02-5.64s5.02 2.64 5.02 5.64c0 3.02-1.8 5.662-5.02 5.662zm0-10.162c-2.36 0-3.88 1.9-3.88 4.5s1.52 4.52 3.88 4.52c2.38 0 3.88-1.92 3.88-4.52s-1.5-4.5-3.88-4.5z"/><path id="E" d="M750.642 1036.336a3.42 3.42 0 0 0-3.421 3.42v5.662c0 .36-.3.56-.56.56-.28 0-.58-.2-.58-.56v-9.502c0-.36.3-.56.58-.56.26 0 .56.2.56.56v.82c.9-.98 2.08-1.54 3.42-1.54.36 0 .58.3.58.56a.58.58 0 0 1-.58.58z"/><path id="F" d="M760.82 1044.797c-.88.98-2.1 1.52-3.58 1.52-3.22 0-5.02-2.64-5.02-5.662 0-3 1.8-5.64 5.02-5.64 1.48 0 2.7.54 3.58 1.52.12.12.16.262.16.38 0 .3-.28.6-.58.6-.14 0-.28-.06-.42-.2-.66-.74-1.58-1.16-2.74-1.16-2.36 0-3.88 1.9-3.88 4.5s1.52 4.52 3.88 4.52c1.16 0 2.08-.44 2.74-1.16.14-.14.28-.2.42-.2.3 0 .58.26.58.58 0 .14-.04.26-.16.398z"/><path id="G" d="M799.04 1045.98c-.28 0-.58-.2-.58-.56v-5.842c0-1.9-1.52-3.42-3.42-3.42a3.42 3.42 0 0 0-3.421 3.42v5.842c0 .36-.3.56-.56.56-.28 0-.58-.2-.58-.56v-9.502c0-.36.3-.56.58-.56.26 0 .56.2.56.56v.64c.9-.98 2.08-1.54 3.42-1.54a4.6 4.6 0 0 1 4.561 4.561v5.842c0 .36-.3.56-.56.56z"/><path id="H" d="M805.92 1045.98h-.62c-1.58 0-2.36-.78-2.36-2.342v-7.14h-1.02c-.36 0-.56-.3-.56-.58 0-.26.2-.56.56-.56h1.02v-3.06c0-.36.3-.56.58-.56s.56.2.56.56v3.06h1.84c.36 0 .56.3.56.56 0 .28-.2.58-.56.58h-1.84v7.14c0 .98.28 1.2 1.22 1.2h.62c.36 0 .56.3.56.58 0 .26-.2.56-.56.56z"/><path id="I" d="M817.322 1041.236h-8.302c.18 2.28 1.66 3.94 3.84 3.94 1.08 0 2.36-.48 2.94-1.38.14-.22.3-.28.48-.28.3 0 .62.24.62.54 0 .18 0 .22-.38.658-.92 1.082-2.26 1.602-3.66 1.602-3.22 0-5.02-2.64-5.02-5.662 0-3 1.8-5.64 5.02-5.64s5.02 2.66 5.02 5.64c0 .3-.28.58-.56.58zm-4.46-5.08c-2.4 0-3.66 1.84-3.84 3.94h7.7c-.18-2.28-1.66-3.94-3.86-3.94z"/><path id="J" d="M849.08 1045.98h-.02c-.66 0-1.6-.36-1.98-1.56-.84 1.18-2.14 1.9-3.88 1.9-3.26 0-5.02-2.682-5.02-5.662 0-3.02 1.8-5.64 5.02-5.64 1.74 0 3.04.72 3.88 1.88v-.98c0-.32.26-.56.58-.56.28 0 .56.2.56.56v8.063c0 1.28 1.44.48 1.44 1.44a.55.55 0 0 1-.58.561zm-5.88-9.822c-2.36 0-3.88 1.9-3.88 4.5s1.52 4.52 3.88 4.52c2.38 0 3.88-1.92 3.88-4.52s-1.5-4.5-3.88-4.5z"/><path id="K" d="M954.68 1050.54c-1.7 0-4.102-.64-4.102-1.36 0-.32.26-.64.58-.64.22 0 .68.34 1.06.48.52.18 1.34.38 2.46.38 2.56 0 3.88-1.26 3.88-3.72v-1.4c-.88 1.06-2.14 1.7-3.88 1.7-3.16 0-5.02-2.24-5.02-5.322 0-3 1.8-5.64 5.02-5.64 1.74 0 3.04.72 3.88 1.88v-.96c0-.36.3-.56.58-.56.26 0 .56.2.56.56v9.742c0 3.182-1.9 4.86-5.02 4.86zm0-14.383c-2.36 0-3.88 1.9-3.88 4.5 0 2.582 1.42 4.182 3.88 4.182s3.88-1.6 3.88-4.182c0-2.6-1.5-4.5-3.88-4.5z"/><path id="L" d="M971.16 1036.156l-5.42 12.822c-.4.94-1.22 1.2-2.14 1.2h-.88c-.36 0-.56-.3-.56-.58 0-.262.2-.56.56-.56h.88c.44 0 .9-.02 1.08-.48l1.14-2.72-4.142-9.682c-.04-.1-.04-.18-.04-.26 0-.32.28-.54.58-.54.18 0 .4.08.5.34l3.722 8.682 3.68-8.682a.52.52 0 0 1 .52-.34c.3 0 .56.22.56.54 0 .08 0 .16-.04.26z"/><path id="M" d="M69.647 213.7c-5.15 0-8.03-4.224-8.03-9.055 0-4.8 2.88-9.023 8.03-9.023s8.032 4.224 8.032 9.023c0 4.832-2.88 9.055-8.032 9.055zm0-16.255c-3.775 0-6.208 3.04-6.208 7.2s2.432 7.23 6.208 7.23c3.808 0 6.208-3.072 6.208-7.23s-2.4-7.2-6.208-7.2z"/><path id="N" d="M88.143 197.733a5.47 5.47 0 0 0-5.471 5.472v9.055c0 .576-.48.896-.896.896-.448 0-.928-.32-.928-.896v-15.2c0-.576.48-.896.928-.896.416 0 .896.32.896.896v1.312c1.44-1.568 3.328-2.464 5.47-2.464a.92.92 0 0 1 .928.896c0 .448-.352.928-.928.928z"/><path id="O" d="M93.935 213.348c-1.728 0-3.168-1.6-3.168-3.392V191.27c0-.576.48-.896.928-.896.416 0 .896.32.896.896v18.687c0 2.048 2.27.864 2.27 2.304 0 .544-.384 1.088-.928 1.088z"/><path id="P" d="M111.565 213.156c-.448 0-.928-.32-.928-.896v-1.6c-1.344 1.888-3.424 3.04-6.208 3.04-5.15 0-8.03-4.224-8.03-9.055 0-4.8 2.88-9.023 8.03-9.023 2.784 0 4.864 1.152 6.208 3.008v-7.36c0-.576.48-.896.928-.896.416 0 .896.32.896.896v21c0 .576-.48.896-.896.896zm-7.136-15.71c-3.775 0-6.208 3.04-6.208 7.2s2.432 7.23 6.208 7.23c3.808 0 6.208-3.072 6.208-7.23s-2.4-7.2-6.208-7.2z"/><path id="Q" d="M137.42 197.35l-5.216 15.04c-.224.608-.512.768-.928.768-.544 0-.704-.192-.896-.768l-4.192-12.48-4.19 12.48c-.224.608-.512.768-.928.768s-.736-.256-.896-.768l-5.184-15.04c-.032-.096-.064-.256-.064-.352 0-.512.512-.832.928-.832.32 0 .704.16.832.608l4.383 12.67 4.192-12.51c.192-.608.384-.768.928-.768.384 0 .704.128.896.768l4.256 12.51 4.32-12.67c.16-.448.48-.608.832-.608.48 0 .992.32.992.864 0 .128-.032.224-.064.32z"/><path id="R" d="M140.846 193.093a1.8 1.8 0 1 1 0-3.648 1.8 1.8 0 1 1 0 3.648zm0 20.063c-.448 0-.928-.288-.928-.896v-15.2c0-.576.448-.896.928-.896.416 0 .896.288.896.896v15.2c0 .576-.416.896-.896.896z"/><path id="S" d="M246.7 213.156h-.032c-1.056 0-2.56-.576-3.167-2.496-1.344 1.888-3.424 3.04-6.208 3.04-5.215 0-8.03-4.288-8.03-9.055 0-4.832 2.88-9.023 8.03-9.023 2.784 0 4.864 1.152 6.208 3.008v-1.568c0-.512.416-.896.928-.896.448 0 .896.32.896.896v12.895c0 2.048 2.304.768 2.304 2.304 0 .416-.288.896-.928.896zm-9.408-15.71c-3.775 0-6.208 3.04-6.208 7.2s2.432 7.23 6.208 7.23c3.808 0 6.208-3.072 6.208-7.23s-2.4-7.2-6.208-7.2z"/><path id="T" d="M280.042 211.268c-1.408 1.568-3.36 2.432-5.728 2.432-5.15 0-8.03-4.224-8.03-9.055 0-4.8 2.88-9.023 8.03-9.023 2.368 0 4.32.864 5.728 2.432.192.192.256.416.256.608 0 .48-.448.96-.928.96-.224 0-.448-.096-.672-.32-1.056-1.184-2.528-1.856-4.384-1.856-3.775 0-6.208 3.04-6.208 7.2s2.432 7.23 6.208 7.23c1.856 0 3.328-.704 4.384-1.856.224-.224.448-.32.672-.32.48 0 .928.416.928.928 0 .224-.064.416-.256.64z"/><path id="U" d="M370.602 213.156h-.992c-2.528 0-3.776-1.248-3.776-3.744V197.99h-1.632c-.576 0-.896-.48-.896-.928 0-.416.32-.896.896-.896h1.632v-4.896c0-.576.48-.896.928-.896s.896.32.896.896v4.896h2.944c.576 0 .896.48.896.896 0 .448-.32.928-.896.928h-2.944v11.423c0 1.568.448 1.92 1.952 1.92h.992c.576 0 .896.48.896.928 0 .416-.32.896-.896.896z"/><path id="V" d="M414.537 220.45c-2.72 0-6.56-1.024-6.56-2.176 0-.512.416-1.024.928-1.024.352 0 1.088.544 1.696.768.832.288 2.144.608 3.936.608 4.096 0 6.208-2.016 6.208-5.952v-2.24c-1.408 1.696-3.424 2.72-6.208 2.72-5.055 0-8.03-3.583-8.03-8.51 0-4.8 2.88-9.023 8.03-9.023 2.784 0 4.864 1.152 6.208 3.008v-1.536c0-.576.48-.896.928-.896.416 0 .896.32.896.896v15.583c0 5.088-3.04 7.775-8.032 7.775zm0-23.006c-3.775 0-6.208 3.04-6.208 7.2 0 4.127 2.272 6.688 6.208 6.688s6.208-2.56 6.208-6.687c0-4.16-2.4-7.2-6.208-7.2z"/><path id="W" d="M54.03 258.903c-3.776 0-5.568-3.52-5.568-11.87s1.792-11.87 5.568-11.87 5.567 3.52 5.567 11.87-1.79 11.87-5.567 11.87zm0-21.822c-2.112 0-3.264 2.368-3.264 9.95s1.152 9.95 3.264 9.95 3.264-2.368 3.264-9.95-1.152-9.95-3.264-9.95z"/><path id="X" d="M34.256 608.565v-1.92c2.048-6.848 8.447-10.687 8.447-15.935 0-2.432-1.216-3.648-2.784-3.648-1.824 0-3.168 1.408-3.36 4.864h-2.112c.256-5.248 2.624-6.783 5.407-6.783 3.04 0 5.152 2.048 5.152 5.887 0 5.76-5.184 7.552-8.64 15.615h8.767v1.92h-10.88z"/><path id="Y" d="M52.75 608.886c-3.776 0-5.567-3.52-5.567-11.87s1.79-11.87 5.567-11.87 5.567 3.52 5.567 11.87-1.79 11.87-5.567 11.87zm0-21.823c-2.112 0-3.264 2.368-3.264 9.952s1.152 9.95 3.264 9.95 3.264-2.368 3.264-9.95-1.152-9.952-3.264-9.952z"/><path id="Z" d="M49.55 783.876c-3.776 0-5.568-3.52-5.568-11.87s1.792-11.87 5.568-11.87 5.567 3.52 5.567 11.87-1.792 11.87-5.567 11.87zm0-21.823c-2.112 0-3.264 2.368-3.264 9.952s1.152 9.95 3.264 9.95 3.264-2.368 3.264-9.95-1.152-9.952-3.264-9.952z"/><path id="a" d="M112.847 975.668c.32 2.305 1.6 2.688 2.496 2.688 2.048 0 3.328-2.816 3.392-9.248-.928.992-2.176 1.76-3.552 1.76-2.592 0-4.96-1.856-4.96-7.104 0-4.48 1.92-7.23 4.96-7.23 4 0 5.92 2.304 5.92 10.623 0 9.28-2.176 13.12-5.823 13.12-2.976 0-4.096-1.792-4.544-4.48l2.112-.128zm5.952-10.88c0-4.672-1.216-6.336-3.264-6.336-1.792 0-3.008 1.345-3.008 5.344 0 4.128 1.408 5.152 2.88 5.152s2.624-.96 3.392-1.984v-2.176z"/><path id="b" d="M751.08 979.956v-1.92c2.048-6.848 8.447-10.687 8.447-15.935 0-2.432-1.216-3.648-2.784-3.648-1.823 0-3.168 1.408-3.36 4.864h-2.112c.256-5.248 2.624-6.783 5.408-6.783 3.04 0 5.15 2.048 5.15 5.887 0 5.76-5.184 7.552-8.64 15.615h8.768v1.92h-10.88z"/><path id="c" d="M768.934 980.276c-3.775 0-5.567-3.52-5.567-11.87s1.792-11.87 5.567-11.87 5.567 3.52 5.567 11.87-1.792 11.87-5.567 11.87zm0-21.823c-2.112 0-3.264 2.368-3.264 9.952s1.15 9.95 3.264 9.95 3.264-2.368 3.264-9.95-1.152-9.952-3.264-9.952z"/><path id="d" d="M777.51 979.956v-1.92h2.816v-18.56l-2.88.256v-1.408c1.312-.32 2.592-.896 3.647-1.79h1.536v21.502h2.688v1.92h-7.808z"/><path id="e" d="M128.864 866.14c-1.54 0-4.116-.476-5.432-2.1-.168-.252-.252-.504-.252-.728 0-.7.672-1.26 1.26-1.26.336 0 .588.168.868.477.868.952 2.296 1.23 3.556 1.23 2.52 0 3.332-.868 3.332-2.128 0-3.584-8.54-1.372-8.54-7.14 0-3.052 2.856-4.172 5.516-4.172 1.512 0 5.068.756 5.068 2.324 0 .615-.504 1.26-1.176 1.26-.252 0-.644-.14-.924-.364-.756-.644-1.848-.84-2.968-.84-2.324 0-3.136.868-3.136 1.792 0 3.332 8.568 1.176 8.568 7.14 0 3.305-2.772 4.508-5.74 4.508z"/><path id="f" d="M141.66 865.665h-.476c-2.66 0-3.668-1.4-3.668-3.696v-8.792h-.84c-.672 0-1.204-.53-1.204-1.176a1.19 1.19 0 0 1 1.176-1.204h.84v-3.892c0-.784.588-1.176 1.204-1.176s1.176.392 1.176 1.176v3.892h1.792c.784 0 1.176.645 1.176 1.176 0 .673-.448 1.204-1.176 1.204h-1.792v9.044c0 .784.28 1.064 1.064 1.064h.7c.728 0 1.204.532 1.204 1.176 0 .672-.448 1.204-1.176 1.204z"/><path id="g" d="M171.984 889.333c-1.54 0-2.24-1.092-2.492-1.596-1.12 1.23-2.744 2.07-4.928 2.07-4.564 0-7.028-3.752-7.028-7.924s2.52-7.896 7.028-7.896c1.96 0 3.528.7 4.62 1.848v-.112c0-.308.112-1.26 1.176-1.26.588 0 1.232.31 1.232 1.176v10.81c0 .364.252.504.392.504.784 0 1.204.56 1.204 1.204a1.15 1.15 0 0 1-1.204 1.176zm-7.42-12.964c-2.8 0-4.62 2.184-4.62 5.516 0 3.36 1.82 5.544 4.62 5.544 2.828 0 4.62-2.184 4.62-5.544 0-3.332-1.792-5.516-4.62-5.516z"/><path id="h" d="M193.852 876.062l-4.34 12.29c-.224.616-.616.98-1.232.98-.588 0-.924-.252-1.176-.98l-3.276-9.24-3.304 9.24c-.224.673-.616.98-1.204.98-.56 0-.952-.308-1.176-.98l-4.312-12.29c-.056-.17-.056-.28-.056-.448 0-.7.644-1.148 1.232-1.148a1.11 1.11 0 0 1 1.092.784l3.248 9.352 3.304-9.155c.224-.645.504-.98 1.176-.98.616 0 .952.31 1.176.98l3.276 9.155 3.276-9.352a1.1 1.1 0 0 1 1.064-.784c.644 0 1.288.477 1.288 1.176 0 .14 0 .252-.056.42z"/><path id="i" d="M414.697 891.693c-1.708 0-5.936-.616-5.936-2.296 0-.644.588-1.26 1.204-1.26.644 0 .084.084 1.568.644.672.252 1.68.532 3.164.532 3.108 0 4.62-1.484 4.62-4.424v-1.26c-1.092 1.036-2.66 1.68-4.62 1.68-4.424 0-7.028-3.136-7.028-7.448 0-4.2 2.52-7.896 7.028-7.896 1.96 0 3.472.588 4.62 1.792v-.112c0-.784.644-1.204 1.204-1.204.588 0 1.204.42 1.204 1.204V884.9c0 4.452-2.66 6.804-7.028 6.804zm0-19.348c-2.8 0-4.62 2.184-4.62 5.516 0 3.192 1.68 5.068 4.62 5.068s4.62-1.876 4.62-5.068c0-3.332-1.792-5.516-4.62-5.516z"/><path id="j" d="M845.427 279.552c-5.992 0-5.992-7.112-5.992-11.2 0-3.948.615-9.716 5.964-9.716s6.02 5.628 6.02 9.716c0 4.256-.11 11.2-5.99 11.2zm3.584-11.2c0-2.464-.057-7.308-3.584-7.308s-3.584 4.844-3.584 7.308v1.568c0 2.912.392 7.252 3.556 7.252 3.22 0 3.612-4.34 3.612-7.252v-1.568z"/><path id="k" d="M883.17 285.46c-1.708 0-5.936-.616-5.936-2.296 0-.644.588-1.26 1.204-1.26.644 0 .084.084 1.567.644.673.252 1.68.532 3.164.532 3.108 0 4.62-1.484 4.62-4.424v-1.26c-1.092 1.036-2.66 1.68-4.62 1.68-4.424 0-7.027-3.136-7.027-7.448 0-4.2 2.52-7.896 7.027-7.896 1.96 0 3.473.588 4.62 1.792v-.112c0-.784.645-1.204 1.204-1.204.588 0 1.204.42 1.204 1.204v13.244c0 4.452-2.66 6.804-7.028 6.804zm0-19.348c-2.8 0-4.62 2.184-4.62 5.516 0 3.192 1.68 5.068 4.62 5.068s4.62-1.876 4.62-5.068c0-3.332-1.792-5.516-4.62-5.516z"/><path id="l" d="M931.917 279.076c-1.54 0-2.24-1.092-2.49-1.596-1.12 1.232-2.744 2.072-4.93 2.072-4.563 0-7.027-3.752-7.027-7.924s2.52-7.896 7.027-7.896c1.96 0 3.528.7 4.62 1.848v-.112c0-.308.112-1.26 1.176-1.26.59 0 1.232.308 1.232 1.176v10.808c0 .364.252.504.392.504.784 0 1.204.56 1.204 1.204a1.15 1.15 0 0 1-1.204 1.176zm-7.42-12.964c-2.8 0-4.62 2.184-4.62 5.516 0 3.36 1.82 5.544 4.62 5.544 2.828 0 4.62-2.184 4.62-5.544 0-3.332-1.792-5.516-4.62-5.516z"/><path id="m" d="M979.236 279.076h-.477c-2.66 0-3.668-1.4-3.668-3.696v-8.792h-.84a1.19 1.19 0 1 1-.028-2.38h.84v-3.892c0-.784.588-1.176 1.203-1.176s1.177.392 1.177 1.176v3.892h1.792c.784 0 1.176.644 1.176 1.176 0 .672-.448 1.204-1.176 1.204h-1.792v9.044c0 .784.28 1.064 1.063 1.064h.7c.728 0 1.204.532 1.204 1.176 0 .672-.448 1.204-1.176 1.204z"/><path id="n" d="M948.296 308.716c-.616 0-1.204-.392-1.204-1.176 0 0-1.65 1.68-4.62 1.68-4.508 0-7.027-3.696-7.027-7.924 0-4.2 2.52-7.896 7.027-7.896 1.96 0 3.528.672 4.62 1.82v-5.208c0-.812.588-1.204 1.204-1.204s1.204.392 1.204 1.176v17.556c0 .784-.588 1.176-1.204 1.176zm-5.824-12.936c-2.8 0-4.62 2.184-4.62 5.516 0 3.36 1.82 5.544 4.62 5.544 2.828 0 4.62-2.184 4.62-5.544 0-3.332-1.792-5.516-4.62-5.516z"/><path id="o" d="M126.155 66.68h-22.2c.84 5.64 4.44 9.24 9.72 9.24 2.7 0 5.4-.96 7.14-3.12.54-.6 1.14-.96 1.86-.96 1.32 0 2.7 1.2 2.7 2.64 0 .72-.18 1.26-1.44 2.52-2.7 2.64-6.42 4.02-10.26 4.02-9.66 0-15.06-7.98-15.06-16.98 0-8.94 5.4-16.92 15.06-16.92 9.78 0 15 7.98 15 16.92 0 1.32-.96 2.64-2.52 2.64zm-12.48-14.46c-5.64 0-8.94 4.14-9.72 9.3h19.44c-.84-5.76-4.44-9.3-9.72-9.3z"/><path id="p" d="M146.436 52.222c-4.62 0-8.52 3.9-8.52 8.58v16.62c0 1.68-1.26 2.58-2.64 2.58-1.26 0-2.52-.9-2.52-2.52v-26.76c0-1.68 1.38-2.58 2.52-2.58 1.2 0 2.34.66 2.58 2.04a13.88 13.88 0 0 1 8.58-3.06c1.74 0 2.64 1.2 2.64 2.58 0 1.32-.9 2.52-2.64 2.52z"/><path id="q" d="M204.094 81.02c-4.38 0-10.5-1.8-13.92-4.98-.66-.6-.84-1.26-.84-1.86a2.6 2.6 0 0 1 2.58-2.58c.9 0 1.2.3 2.28 1.14 2.94 2.22 6.42 3.18 9.9 3.18 7.14 0 10.26-2.58 10.26-7.02 0-12.48-23.94-5.4-23.94-21.72 0-7.32 6.18-10.98 14.1-10.98 4.14 0 10.08 1.62 13.02 5.1.48.54.66 1.08.66 1.62 0 1.44-1.32 2.7-2.58 2.7-.9 0-1.38-.42-2.4-1.32-2.4-2.04-5.46-2.94-8.7-2.94-6.48 0-8.94 2.58-8.94 5.82 0 11.22 23.94 4.56 23.94 21.72 0 8.94-7.5 12.12-15.42 12.12z"/><path id="r" d="M225.814 43.282a4.3 4.3 0 1 1 0-8.64 4.3 4.3 0 1 1 0 8.64zm0 36.72c-1.32 0-2.64-.9-2.64-2.52v-26.76c0-1.68 1.32-2.58 2.64-2.58 1.26 0 2.52.9 2.52 2.58v26.76c0 1.68-1.26 2.52-2.52 2.52z"/><path id="s" d="M259.473 80c-1.32 0-2.52-.9-2.52-2.52V60.8c0-4.68-3.9-8.58-8.58-8.58-4.62 0-8.52 3.9-8.52 8.58v16.62c0 1.68-1.26 2.64-2.64 2.64-1.26 0-2.52-.9-2.52-2.58v-26.82c0-1.74 1.26-2.52 2.52-2.52 1.2 0 2.28.66 2.58 1.98 2.34-1.86 5.28-3 8.58-3 7.44 0 13.68 6.18 13.68 13.68v16.62c0 1.68-1.2 2.58-2.58 2.58z"/><path id="t" d="M281.313 93.68c-3.66 0-12.72-1.32-12.72-4.92 0-1.38 1.26-2.7 2.58-2.7 1.38 0 .18.18 3.36 1.38 1.44.54 3.6 1.14 6.78 1.14 6.66 0 9.9-3.18 9.9-9.48v-2.7c-2.34 2.22-5.7 3.6-9.9 3.6-9.48 0-15.06-6.72-15.06-15.96 0-9 5.4-16.92 15.06-16.92 4.2 0 7.44 1.26 9.9 3.84v-.24c0-1.68 1.38-2.58 2.58-2.58 1.26 0 2.58.9 2.58 2.58V79.1c0 9.54-5.7 14.58-15.06 14.58zm0-41.458c-6 0-9.9 4.68-9.9 11.82 0 6.84 3.6 10.86 9.9 10.86s9.9-4.02 9.9-10.86c0-7.14-3.84-11.82-9.9-11.82z"/><path id="u" d="M449.24 80c-3.3 0-4.8-2.34-5.34-3.42-2.4 2.64-5.88 4.44-10.56 4.44-9.78 0-15.06-8.04-15.06-16.98s5.4-16.92 15.06-16.92c4.2 0 7.56 1.5 9.9 3.96v-.24c0-.66.24-2.7 2.52-2.7 1.26 0 2.64.66 2.64 2.52v23.16c0 .78.54 1.08.84 1.08 1.68 0 2.58 1.2 2.58 2.58 0 1.26-.9 2.52-2.58 2.52zm-15.9-27.78c-6 0-9.9 4.68-9.9 11.82 0 7.2 3.9 11.88 9.9 11.88 6.06 0 9.9-4.68 9.9-11.88 0-7.14-3.84-11.82-9.9-11.82z"/><path id="v" d="M468.68 52.222c-4.62 0-8.52 3.9-8.52 8.58v16.62c0 1.68-1.26 2.58-2.64 2.58-1.26 0-2.52-.9-2.52-2.52v-26.76c0-1.68 1.38-2.58 2.52-2.58 1.2 0 2.34.66 2.58 2.04 2.34-1.92 5.52-3.06 8.58-3.06 1.74 0 2.64 1.2 2.64 2.58 0 1.32-.9 2.52-2.64 2.52z"/><path id="w" d="M617.168 66.68h-22.2c.84 5.64 4.44 9.24 9.72 9.24 2.7 0 5.4-.96 7.14-3.12.54-.6 1.14-.96 1.86-.96 1.32 0 2.7 1.2 2.7 2.64 0 .72-.18 1.26-1.44 2.52-2.7 2.64-6.42 4.02-10.26 4.02-9.66 0-15.06-7.98-15.06-16.98 0-8.94 5.4-16.92 15.06-16.92 9.78 0 15 7.98 15 16.92 0 1.32-.96 2.64-2.52 2.64zm-12.48-14.46c-5.64 0-8.94 4.14-9.72 9.3h19.438c-.84-5.76-4.44-9.3-9.72-9.3z"/><path id="x" d="M697.687 79.94c-1.32 0-2.58-.84-2.58-2.52 0 0-3.54 3.6-9.9 3.6-9.66 0-15.06-7.92-15.06-16.98 0-9 5.4-16.92 15.06-16.92 4.2 0 7.56 1.44 9.9 3.9v-11.16c0-1.74 1.26-2.58 2.58-2.58s2.58.84 2.58 2.52V77.42c0 1.68-1.26 2.52-2.58 2.52zm-12.48-27.72c-6 0-9.9 4.68-9.9 11.82 0 7.2 3.9 11.88 9.9 11.88 6.06 0 9.9-4.68 9.9-11.88 0-7.14-3.84-11.82-9.9-11.82z"/><path id="y" d="M97.6 142.22c-9.66 0-15.06-7.92-15.06-16.98 0-9 5.4-16.92 15.06-16.92s15.06 7.92 15.06 16.92c0 9.06-5.4 16.98-15.06 16.98zm0-28.8c-6 0-9.9 4.68-9.9 11.82 0 7.2 3.9 11.88 9.9 11.88 6.06 0 9.9-4.68 9.9-11.88 0-7.14-3.84-11.82-9.9-11.82z"/></defs><clipPath ><use xlink:href="#B"/></clipPath><path d="M137.25 944.534h33.005v.052H137.25zm36.5-.058h33.005v.058H173.75zm36.5-.07h33.005v.07H210.25zm36.5-.245h33.005v.244H246.75zm36.498-.235h33.005v.236h-33.005zm36.5-.3h33.005v.3h-33.005zm36.5-.5h33.005v.503h-33.005zm36.5-.672h33.005v.924h-33.005zm36.5-.036h33.005v.76h-33.005zm36.5-1.127h33.005v.947h-33.005z" class="L"/><path d="M502.243 941.307h33.005v3.762h-33.005z" class="M"/><path d="M502.243 940.466h33.005v1.18h-33.005zm36.5-1.88h33.005v1.882h-33.005zm36.5-2.587h33.005v2.587h-33.005zm109.498-19.436h33.005v12.046H684.74z" class="L"/><path d="M721.238 916.562h33.005v28.607h-33.005z" class="M"/><path d="M721.238 904.568h33.005v12.83h-33.005zm36.5-30.238h33.005v30.24h-33.005zm36.5-52.57h33.005v52.43h-33.005z" class="L"/><path d="M137.25 944.586h33.005v.22H137.25zm36.5-.052h33.005v.27H173.75zm36.5-.058h33.005v.33H210.25zm36.5-.07h33.005v.4H246.75zm36.498-.245h33.005v.644h-33.005zm36.5-.235h33.005v.88h-33.005zm36.5-.287h33.005v1.18h-33.005zm36.5-.25h33.005v1.683h-33.005zm36.5-.2h33.005v1.88h-33.005zm36.5-.94h33.005v2.822h-33.005zm72.998-1.782h33.005v4.703h-33.005zm36.5-1.88h33.005v6.584h-33.005zm36.498-2.587h33.005v9.17H611.74z" class="M"/><path d="M611.74 933.218h33.005v3.058H611.74z" class="L"/><path d="M648.24 933.218h33.005v11.95H648.24z" class="M"/><path d="M648.24 928.608h33.005v4.982H648.24z" class="L"/><path d="M684.74 928.608h33.005v16.56H684.74zm72.997-24.04h33.005v40.6h-33.005zm36.5-30.238h33.005v70.84h-33.005zm36.5-52.57h33.005v123.4h-33.005z" class="M"/><path d="M830.736 770.162h33.005v52.502h-33.005z" class="L"/><path d="M867.235 770.162h33.005V945.17h-33.005z" class="M"/><path d="M867.235 703.438h33.005v66.752h-33.005z" class="L"/><path d="M903.734 703.438h33.005v241.73h-33.005z" class="M"/><path d="M903.734 634.478h33.005v68.96h-33.005z" class="L"/><path d="M940.233 634.478h33.005v310.7h-33.005z" class="M"/><path d="M940.233 544.58h33.005v89.898h-33.005z" class="L"/><path d="M976.732 544.58h33.005V945.17h-33.005z" class="M"/><path d="M976.732 418.066h33.005V544.58h-33.005z" class="L"/><path d="M1013.232 418.066h33.005V945.17h-33.005z" class="M"/><path d="M1013.232 238.973h33.005v179.093h-33.005z" class="L"/><g class="L N"><path d="M59.854 191.525l-5.63 20.96c-.128.448-.48.672-.896.672-.384 0-.768-.224-.864-.672l-4.8-17.727-4.768 17.727c-.096.448-.48.672-.864.672-.416 0-.768-.224-.896-.672l-5.63-20.96c-.032-.096-.032-.192-.032-.288 0-.544.448-.928.928-.928.416 0 .736.224.832.704l4.8 17.727 4.768-17.727c.128-.448.48-.64.864-.64.416 0 .768.192.896.64l4.768 17.727 4.8-17.727c.128-.48.448-.704.832-.704.48 0 .928.384.928.928a.88.88 0 0 1-.032.288z"/><use xlink:href="#M"/><use xlink:href="#N"/><use xlink:href="#O"/><use xlink:href="#P"/><use xlink:href="#Q"/><use xlink:href="#R"/><use xlink:href="#P" x="48.512"/><path d="M179.3 205.572h-13.28c.288 3.648 2.656 6.304 6.144 6.304 1.728 0 3.776-.768 4.704-2.208.224-.352.48-.448.768-.448.48 0 .992.384.992.864 0 .288 0 .352-.608 1.056-1.472 1.728-3.616 2.56-5.856 2.56-5.15 0-8.03-4.224-8.03-9.055 0-4.8 2.88-9.023 8.03-9.023s8.032 4.256 8.032 9.023c0 .48-.448.928-.896.928zm-7.136-8.127c-3.84 0-5.855 2.944-6.144 6.304h12.32c-.288-3.648-2.656-6.304-6.176-6.304zm23.743 16.32c-1.92 0-5.15-.672-6.27-2.528-.128-.192-.128-.352-.128-.48 0-.512.448-.96.928-.96.192 0 .512.16.704.448 1.152 1.408 3.2 1.696 4.768 1.696 3.104 0 4.672-1.024 4.672-3.104 0-4.832-10.496-2.27-10.496-8.67 0-3.23 3.232-4.48 6.144-4.48 1.664 0 4.224.576 5.504 1.856.192.192.288.416.288.608 0 .48-.48.96-.992.96-.192 0-.416-.064-.608-.256-.992-.96-2.784-1.344-4.192-1.344-2.815 0-4.32 1.088-4.32 2.656 0 4.48 10.495 2.112 10.495 8.67 0 3.648-3.2 4.928-6.496 4.928z"/><use xlink:href="#M" x="142.781"/><use xlink:href="#O" x="132.861"/><use xlink:href="#S"/><use xlink:href="#N" x="169.052"/><use xlink:href="#T"/><use xlink:href="#S" x="53.502"/><path d="M311.435 213.7c-2.784 0-4.864-1.152-6.208-3.04v8.287a.92.92 0 0 1-.896.928c-.448 0-.928-.352-.928-.928V197.06c0-.576.48-.896.928-.896.416 0 .896.32.896.896v1.568c1.344-1.856 3.423-3.008 6.208-3.008 5.15 0 8.03 4.224 8.03 9.023 0 4.832-2.88 9.055-8.03 9.055zm0-16.255c-3.808 0-6.208 3.04-6.208 7.2s2.4 7.23 6.208 7.23 6.208-3.072 6.208-7.23-2.4-7.2-6.208-7.2z"/><use xlink:href="#S" x="92.638"/><use xlink:href="#T" x="75.52"/><use xlink:href="#R" x="219.101"/><use xlink:href="#U"/><path d="M387.56 197.445l-8.67 20.5c-.64 1.504-1.952 1.92-3.423 1.92h-1.408c-.576 0-.896-.48-.896-.928 0-.416.32-.896.896-.896h1.408c.704 0 1.44-.032 1.728-.768l1.824-4.352-6.624-15.487c-.064-.16-.064-.288-.064-.416 0-.512.448-.864.928-.864a.82.82 0 0 1 .8.544l5.94 13.888 5.888-13.887c.16-.416.512-.544.832-.544.48 0 .896.352.896.864 0 .128 0 .256-.064.416zm15.458 19.967c-.16 0-.32-.064-.512-.16-4.224-3.104-5.728-8.8-5.728-13.8 0-4.16 1.536-11.103 5.76-13.503.16-.064.32-.16.48-.16.512 0 .864.512.864.992 0 .704-.128.384-1.12 1.28-3.104 2.784-4.16 7.36-4.16 11.4 0 3.712 1.28 9.95 4.863 12.255.32.224.48.48.48.768a.95.95 0 0 1-.928.928z"/><use xlink:href="#V"/><use xlink:href="#R" x="286.556"/><use xlink:href="#V" x="24.96"/><use xlink:href="#S" x="221.436"/><use xlink:href="#Q" x="354.972"/><use xlink:href="#S" x="264.892"/><use xlink:href="#U" x="150.046"/><use xlink:href="#U" x="159.07"/><path d="M538.184 213.764c-1.92 0-5.15-.672-6.27-2.528-.128-.192-.128-.352-.128-.48 0-.512.448-.96.928-.96.192 0 .512.16.704.448 1.152 1.408 3.2 1.696 4.768 1.696 3.104 0 4.672-1.024 4.672-3.104 0-4.832-10.496-2.27-10.496-8.67 0-3.23 3.232-4.48 6.144-4.48 1.664 0 4.224.576 5.503 1.856.192.192.288.416.288.608 0 .48-.48.96-1 .96a.85.85 0 0 1-.608-.256c-.992-.96-2.785-1.344-4.192-1.344-2.816 0-4.32 1.088-4.32 2.656 0 4.48 10.495 2.112 10.495 8.67 0 3.648-3.2 4.928-6.496 4.928zm10.113 3.486a1.06 1.06 0 0 1-.512.16c-.48 0-.896-.448-.896-.928 0-.288.128-.608.416-.768 3.616-2.368 4.832-8.512 4.832-12.255 0-4.224-1.12-9.375-4.8-11.903-.288-.224-.48-.48-.48-.768 0-.48.416-.992.928-.992.128 0 .32.096.448.16 4.224 2.368 5.728 9.343 5.728 13.503 0 4.992-1.473 10.655-5.664 13.8z"/></g><path d="M82.284 770.475h962.98M82.284 596.197h962.98m-962.98-174.28h962.98M82.284 247.746h963.952" class="N O" fill="none" stroke="#f5f5f7" stroke-width="2" stroke-dasharray="2,6"/><g class="L N"><path d="M44.463 235.48v15.935h2.4v1.92h-2.4v5.248H42.16v-5.248h-7.39v-1.088l6.335-16.767h3.36zm-7.52 15.935h5.215v-13.823h-.064l-5.15 13.823z"/><use xlink:href="#W"/><use xlink:href="#W" x="13.57"/></g><g class="L N"><path d="M34.64 415.08c.256-2.72 1.728-4.928 4.704-4.928 2.592 0 5.152 1.792 5.152 5.632 0 3.264-1.344 5.12-3.008 5.44v.064c2.592.864 3.392 3.296 3.392 5.76 0 4.735-2.752 6.847-5.632 6.847-3.072 0-5.15-2.464-5.184-5.823h2.112c.192 2.496 1.28 3.903 3.328 3.903 1.536 0 3.072-1.664 3.072-4.832 0-3.808-1.6-4.896-5.248-4.896v-1.92c3.456 0 4.864-.832 4.864-4.416 0-2.752-1.088-3.84-2.687-3.84-1.984 0-2.688 1.664-2.752 3.264l-2.112-.256zm18.1 18.814c-3.776 0-5.567-3.52-5.567-11.87s1.8-11.87 5.567-11.87 5.567 3.52 5.567 11.87-1.8 11.87-5.567 11.87zm0-21.822c-2.112 0-3.264 2.368-3.264 9.95s1.152 9.95 3.264 9.95 3.264-2.368 3.264-9.95-1.152-9.95-3.264-9.95z"/><use xlink:href="#W" x="11.65" y="174.991"/></g><g class="L N"><use xlink:href="#X"/><use xlink:href="#Y"/><use xlink:href="#Y" x="13.57"/></g><g class="L N"><path d="M34.19 783.556v-1.92h2.816v-18.56l-2.88.256v-1.408c1.312-.32 2.592-.896 3.648-1.79h1.536v21.502H42v1.92H34.19z"/><use xlink:href="#Z"/><use xlink:href="#Y" x="11.008" y="174.99"/></g><g class="L"><path d="M100.944 979.956v-1.92h2.816v-18.56l-2.88.256v-1.408c1.312-.32 2.592-.896 3.648-1.79h1.536v21.502h2.688v1.92h-7.808z"/><use xlink:href="#a"/><use xlink:href="#a" x="12.928"/><use xlink:href="#X" x="101.694" y="371.391"/><path d="M386.228 979.956v-1.92c2.048-6.848 8.448-10.687 8.448-15.935 0-2.432-1.216-3.648-2.784-3.648-1.824 0-3.168 1.408-3.36 4.864h-2.112c.256-5.248 2.624-6.783 5.407-6.783 3.04 0 5.152 2.048 5.152 5.887 0 5.76-5.184 7.552-8.64 15.615h8.767v1.92h-10.88zm17.855.32c-3.776 0-5.567-3.52-5.567-11.87s1.8-11.87 5.567-11.87 5.567 3.52 5.567 11.87-1.792 11.87-5.567 11.87zm0-21.823c-2.112 0-3.264 2.368-3.264 9.952s1.152 9.95 3.264 9.95 3.264-2.368 3.264-9.95-1.152-9.952-3.264-9.952z"/><use xlink:href="#Z" x="366.82" y="196.4"/><use xlink:href="#Y" x="375.908" y="371.39"/><use xlink:href="#b"/><use xlink:href="#c"/><use xlink:href="#d"/><use xlink:href="#c" x="24.574"/><use xlink:href="#b" x="247.58"/><use xlink:href="#c" x="247.582"/><use xlink:href="#d" x="247.58"/><path d="M1035.906 956.854h10.367v1.216l-6.72 21.887h-2.432l6.72-21.183h-7.936v-1.92zm-934.538-85.28a1.9 1.9 0 0 1-.504.084c-.672 0-1.148-.56-1.148-1.204 0-.393.224-.896.728-1.12.98-.448 1.932-1.204 1.932-2.884V852c0-.784.588-1.204 1.204-1.204.588 0 1.204.42 1.204 1.176v14.477c0 2.828-1.792 4.452-3.416 5.124zm2.212-23.044c-1.12 0-1.988-.896-1.988-2.017s.868-2.016 1.988-2.016 1.988.896 1.988 2.016-.868 2.017-1.988 2.017zm16.015 17.164c-.532 0-1.064-.3-1.176-.924-1.12.867-2.492 1.4-4.032 1.4a6.44 6.44 0 0 1-6.384-6.384v-7.756a1.15 1.15 0 0 1 1.176-1.204c.644 0 1.232.42 1.232 1.176v7.784c0 2.184 1.82 4.004 3.976 4.004 2.184 0 4.004-1.82 4.004-4.004v-7.756c0-.868.56-1.232 1.176-1.232.644 0 1.204.42 1.204 1.204v12.516c0 .784-.56 1.177-1.176 1.177z"/><use xlink:href="#e"/><use xlink:href="#f"/><path d="M154.5 865.665c-.588 0-1.176-.448-1.176-1.176v-15.01l-2.24 2.184c-.252.252-.532.336-.784.336-.672 0-1.26-.616-1.26-1.23a1.14 1.14 0 0 1 .364-.84l4.172-4.03c.336-.3.7-.448 1.036-.448.784 0 1.12.784 1.12 1.428v17.584c0 .756-.588 1.204-1.232 1.204zm9.94.475c-5.992 0-5.992-7.1-5.992-11.2 0-3.948.616-9.716 5.964-9.716s6.02 5.628 6.02 9.716c0 4.256-.112 11.2-5.992 11.2zm3.584-11.2c0-2.464-.056-7.3-3.584-7.3s-3.584 4.845-3.584 7.3v1.567c0 2.912.392 7.252 3.556 7.252 3.22 0 3.612-4.34 3.612-7.252v-1.567zm10.304 11.005c-1.876 0-4.004-1.008-5.04-2.66a1.24 1.24 0 0 1-.196-.672c0-.645.56-1.148 1.204-1.148.532 0 .728.196 1.148.756.7.868 1.792 1.345 2.884 1.345 1.932 0 3.892-1.765 3.892-4.284 0-2.548-1.96-4.312-3.892-4.312-1.484 0-2.492.756-2.968 1.568-.224.42-.616.644-1.092.644-.728 0-1.204-.476-1.204-1.4v-8.876c0-.645.56-1.176 1.204-1.176h8.512c.812 0 1.232.56 1.232 1.204 0 .588-.392 1.176-1.176 1.176h-7.392v5.235c.672-.476 1.736-.756 2.884-.756 3.444 0 6.272 2.912 6.272 6.692 0 3.724-2.828 6.664-6.272 6.664zm-57.23 23.388c-.588 0-1.176-.42-1.176-1.176v-8.82c0-1.624-1.344-2.968-2.94-2.968-1.652 0-2.968 1.344-2.968 2.94v8.82c0 .784-.56 1.204-1.204 1.204-.616 0-1.176-.42-1.176-1.176v-8.82a2.99 2.99 0 0 0-2.968-2.968c-1.624 0-2.968 1.344-2.968 2.94v8.82c0 .784-.588 1.204-1.232 1.204-.588 0-1.176-.42-1.176-1.176V875.64c0-.812.616-1.203 1.232-1.203.392 0 .784.168 1.008.53a5.4 5.4 0 0 1 3.108-.979c1.68 0 3.192.756 4.172 1.988.98-1.232 2.464-1.988 4.144-1.988 2.968 0 5.376 2.38 5.376 5.32v8.82c0 .784-.588 1.204-1.232 1.204zm16.604-6.216h-10.36c.392 2.632 2.072 4.312 4.536 4.312 1.26 0 2.52-.447 3.332-1.456.252-.28.532-.447.868-.447.616 0 1.26.56 1.26 1.23 0 .336-.084.588-.672 1.176-1.26 1.232-2.996 1.876-4.788 1.876-4.508 0-7.028-3.724-7.028-7.924 0-4.172 2.52-7.896 7.028-7.896 4.564 0 7 3.724 7 7.896 0 .616-.448 1.232-1.176 1.232zm-5.824-6.748c-2.632 0-4.172 1.932-4.536 4.34h9.072c-.392-2.687-2.072-4.34-4.536-4.34zm15.848 19.348c-1.708 0-5.936-.616-5.936-2.296 0-.644.588-1.26 1.204-1.26.644 0 .084.084 1.568.644.672.252 1.68.532 3.164.532 3.108 0 4.62-1.484 4.62-4.424v-1.26c-1.092 1.036-2.66 1.68-4.62 1.68-4.424 0-7.028-3.136-7.028-7.448 0-4.2 2.52-7.896 7.028-7.896 1.96 0 3.472.588 4.62 1.792v-.112c0-.784.644-1.204 1.204-1.204.588 0 1.204.42 1.204 1.204v13.244c0 4.452-2.66 6.804-7.028 6.804zm0-19.348c-2.8 0-4.62 2.184-4.62 5.516 0 3.192 1.68 5.068 4.62 5.068s4.62-1.876 4.62-5.068c0-3.332-1.792-5.516-4.62-5.516z"/><use xlink:href="#g"/><use xlink:href="#h"/><use xlink:href="#g" x="37.66"/><use xlink:href="#f" x="75.963" y="23.668"/><path d="M225.49 889.333h-.476c-2.66 0-3.668-1.4-3.668-3.696v-8.792h-.84c-.672 0-1.204-.53-1.204-1.176a1.19 1.19 0 0 1 1.176-1.204h.84v-3.892c0-.784.588-1.176 1.204-1.176s1.176.392 1.176 1.176v3.892h1.792c.784 0 1.176.645 1.176 1.176 0 .673-.448 1.204-1.176 1.204H223.7v9.044c0 .784.28 1.064 1.064 1.064h.7c.728 0 1.204.532 1.204 1.176 0 .672-.448 1.204-1.176 1.204z"/><use xlink:href="#e" x="104.439" y="23.67"/><path d="M397.59 885.3c-.588 0-1.176-.448-1.176-1.176v-15.008l-2.24 2.184c-.252.252-.532.336-.784.336-.672 0-1.26-.616-1.26-1.23 0-.31.112-.59.364-.84l4.172-4.03c.336-.31.7-.448 1.036-.448.784 0 1.12.784 1.12 1.428v17.584c0 .756-.588 1.204-1.232 1.204z"/><use xlink:href="#i"/><path d="M426.43 868.174a2.01 2.01 0 1 1 0-4.032 2.01 2.01 0 1 1 0 4.032zm0 17.136c-.616 0-1.232-.42-1.232-1.176v-12.488c0-.784.616-1.204 1.232-1.204a1.15 1.15 0 0 1 1.176 1.204v12.488c0 .784-.588 1.176-1.176 1.176z"/><use xlink:href="#i" x="22.82"/><use xlink:href="#g" x="289.781" y="-4.033"/><use xlink:href="#h" x="289.78" y="-4.024"/><use xlink:href="#g" x="327.44" y="-4.033"/><use xlink:href="#f" x="365.744" y="19.635"/><use xlink:href="#f" x="373.61" y="19.635"/><path d="M834.927 279.076c-.588 0-1.176-.448-1.176-1.176v-15.008l-2.24 2.184c-.252.252-.532.336-.784.336-.672 0-1.26-.616-1.26-1.232 0-.308.112-.588.364-.84l4.172-4.032c.336-.308.7-.448 1.036-.448.784 0 1.12.784 1.12 1.428v17.584c0 .756-.588 1.204-1.232 1.204z"/><use xlink:href="#j"/><use xlink:href="#j" x="15.008"/><use xlink:href="#k"/><path d="M895.462 261.94c-1.12 0-2.016-.896-2.016-2.016s.896-2.016 2.016-2.016 2.016.896 2.016 2.016-.895 2.016-2.016 2.016zm0 17.136c-.616 0-1.232-.42-1.232-1.176v-12.488c0-.784.616-1.204 1.232-1.204a1.15 1.15 0 0 1 1.176 1.204V277.9c0 .784-.588 1.176-1.176 1.176z"/><use xlink:href="#k" x="23.94"/><use xlink:href="#l"/><path d="M954.345 265.804l-4.34 12.292c-.225.616-.616.98-1.232.98-.588 0-.924-.252-1.176-.98l-3.276-9.24-3.304 9.24c-.224.672-.616.98-1.204.98-.56 0-.952-.308-1.176-.98l-4.312-12.292c-.057-.168-.057-.28-.057-.448 0-.7.645-1.148 1.232-1.148.448 0 .896.224 1.092.784l3.248 9.352 3.304-9.156c.225-.644.504-.98 1.176-.98.616 0 .952.308 1.177.98l3.275 9.156 3.276-9.352c.196-.56.644-.784 1.063-.784.645 0 1.288.476 1.288 1.176 0 .14 0 .252-.056.42z"/><use xlink:href="#l" x="38.779"/><use xlink:href="#m"/><use xlink:href="#m" x="8.428"/><path d="M996.035 279.552c-1.54 0-4.115-.476-5.432-2.1-.168-.252-.252-.504-.252-.728 0-.7.672-1.26 1.26-1.26.336 0 .588.168.868.476.868.952 2.296 1.232 3.556 1.232 2.52 0 3.332-.868 3.332-2.128 0-3.584-8.54-1.372-8.54-7.14 0-3.052 2.856-4.172 5.517-4.172 1.512 0 5.067.756 5.067 2.324 0 .616-.504 1.26-1.176 1.26-.252 0-.644-.14-.924-.364-.756-.644-1.848-.84-2.968-.84-2.324 0-3.137.868-3.137 1.792 0 3.332 8.568 1.176 8.568 7.14 0 3.304-2.77 4.508-5.74 4.508z"/><use xlink:href="#l" x="0.363" y="29.668"/><use xlink:href="#n"/><use xlink:href="#n" x="17.388"/><path d="M983.07 302.528h-10.36c.393 2.632 2.072 4.312 4.536 4.312 1.26 0 2.52-.448 3.332-1.456.252-.28.532-.448.868-.448.616 0 1.26.56 1.26 1.232 0 .336-.084.588-.672 1.176-1.26 1.232-2.996 1.876-4.788 1.876-4.508 0-7.027-3.724-7.027-7.924 0-4.172 2.52-7.896 7.027-7.896 4.564 0 7 3.724 7 7.896 0 .616-.447 1.232-1.176 1.232zm-5.824-6.748c-2.632 0-4.172 1.932-4.536 4.34h9.072c-.392-2.688-2.072-4.34-4.536-4.34z"/><use xlink:href="#n" x="51.184"/></g><path d="M117.255 944.17V895.3m291.993 47.163V896.3" fill="none" stroke="#fff" class="O"/><g class="L"><path d="M67.06 80H42.1c-1.44 0-2.64-1.14-2.64-2.52V39.862c0-1.44 1.2-2.58 2.64-2.58h24.96c1.56 0 2.52 1.14 2.52 2.52 0 1.26-.9 2.58-2.52 2.58H44.62V54.5h15.72a2.56 2.56 0 0 1 2.58 2.58c0 1.38-1.02 2.58-2.58 2.58H44.62V74.9h22.44c1.62 0 2.52 1.26 2.52 2.58 0 1.38-.96 2.52-2.52 2.52zm29.336-28.318l-10.92 26.28c-.54 1.38-1.44 2.04-2.58 2.04-1.02 0-1.98-.66-2.58-2.04l-10.92-26.28c-.12-.42-.18-.72-.18-1.08 0-1.44 1.32-2.46 2.64-2.46.9 0 1.8.48 2.28 1.56l8.76 21 8.76-21c.42-1.14 1.5-1.62 2.34-1.62 1.38 0 2.64.96 2.64 2.46a2.99 2.99 0 0 1-.24 1.14z"/><use xlink:href="#o"/><use xlink:href="#p"/><path d="M176.135 51.742l-16.2 36.838c-1.2 2.76-3.84 4.02-6.6 4.02h-1.92c-1.74 0-2.52-1.26-2.52-2.64 0-1.26.78-2.52 2.52-2.52h1.86c.78 0 1.62-.12 1.98-.96l3.96-8.88-11.7-25.86c-.24-.42-.3-.78-.3-1.14 0-1.5 1.44-2.52 2.76-2.52.9 0 1.68.48 2.16 1.56l9.78 21.72 9.54-21.72c.48-1.08 1.38-1.5 2.22-1.5 1.38 0 2.76 1.02 2.76 2.46 0 .42-.06.72-.3 1.14z"/><use xlink:href="#q"/><use xlink:href="#r"/><use xlink:href="#s"/><use xlink:href="#t"/><path d="M308.133 80.12c-3.24 0-6-2.76-6-6.12V39.862c0-1.74 1.26-2.58 2.58-2.58s2.58.84 2.58 2.52V74c0 .72.54 1.02.84 1.02 1.68 0 2.58 1.2 2.58 2.58 0 1.32-.9 2.52-2.58 2.52z"/><use xlink:href="#o" x="213.777"/><path d="M385.65 41.062L373.77 63.2v14.22c0 1.68-1.26 2.58-2.64 2.58-1.26 0-2.52-.84-2.52-2.52V63.2l-11.88-22.2a2.26 2.26 0 0 1-.36-1.26c0-1.44 1.38-2.58 2.7-2.58.78 0 1.62.42 2.16 1.44l9.9 18.48 10.02-18.48c.54-.96 1.38-1.32 2.16-1.32 1.38 0 2.7 1.08 2.7 2.52a2.14 2.14 0 0 1-.36 1.26z"/><use xlink:href="#o" x="286.905"/><use xlink:href="#u"/><use xlink:href="#v"/><path d="M527.9 40.462L518 77.9c-.3 1.44-1.08 2.1-2.46 2.1-1.26 0-2.16-.66-2.58-2.1l-8.1-28.74-8.04 28.74c-.42 1.44-1.26 2.1-2.52 2.1-1.32 0-2.16-.66-2.52-2.1l-9.9-37.438c-.06-.24-.12-.54-.12-.84 0-1.5 1.38-2.34 2.7-2.34 1.02 0 2.04.6 2.4 1.86l7.56 28.62 7.92-28.38c.42-1.44 1.26-2.1 2.52-2.1 1.32 0 2.16.66 2.58 2.1l7.92 28.38 7.56-28.62c.36-1.32 1.56-1.98 2.46-1.98 1.32 0 2.64.96 2.64 2.46 0 .3-.06.6-.12.84zm29.46 26.218h-22.2c.84 5.64 4.44 9.24 9.72 9.24 2.7 0 5.4-.96 7.14-3.12.54-.6 1.14-.96 1.86-.96 1.32 0 2.7 1.2 2.7 2.64 0 .72-.18 1.26-1.44 2.52-2.7 2.64-6.42 4.02-10.26 4.02-9.66 0-15.06-7.98-15.06-16.98 0-8.94 5.4-16.92 15.06-16.92 9.78 0 15 7.98 15 16.92 0 1.32-.96 2.64-2.52 2.64zm-12.48-14.46c-5.64 0-8.94 4.14-9.72 9.3h19.44c-.84-5.76-4.44-9.3-9.72-9.3zm20.28-.178c-.48.24-.9.3-1.32.3-1.44 0-2.58-1.32-2.58-2.7 0-.84.36-1.56 1.26-2.16 1.56-.84 2.64-2.7 2.64-4.14v-4.56c0-1.74 1.2-2.64 2.52-2.64 1.38 0 2.58.9 2.58 2.64v4.56c0 1.92-.9 6.06-5.1 8.7z"/><use xlink:href="#v" x="120"/><use xlink:href="#w"/><path d="M666.246 80c-.9 0-1.8-.48-2.28-1.56l-3.18-7.8h-19.98l-3.24 7.8c-.48 1.08-1.38 1.56-2.22 1.56-1.32 0-2.7-1.02-2.7-2.52 0-.36.06-.72.24-1.02l15.42-37.498c.72-1.56 1.68-1.86 2.46-1.86.54 0 1.86.3 2.46 1.86l15.48 37.498c.12.3.18.66.18 1.02 0 1.5-1.26 2.52-2.64 2.52zm-15.48-33.6l-7.86 19.08h15.72l-7.86-19.08z"/><use xlink:href="#x"/><use xlink:href="#x" x="34.86"/><use xlink:href="#r" x="518.194"/><use xlink:href="#s" x="518.193"/><use xlink:href="#t" x="518.194"/><path d="M75.158 141.26c-1.26 0-2.52-.9-2.52-2.58v-27.6L61 132.8c-.78 1.5-1.92 1.62-2.4 1.62-.3 0-1.56-.12-2.4-1.62l-11.58-21.6v27.48c0 1.68-1.26 2.58-2.64 2.58-1.26 0-2.52-.9-2.52-2.58v-37.5c0-1.98 1.38-2.7 2.76-2.7.9 0 1.62.42 2.16 1.5l14.22 26.46 14.28-26.46c.6-1.2 1.32-1.5 2.34-1.5 1.32 0 2.58.84 2.58 2.7v37.5c0 1.68-1.26 2.58-2.64 2.58z"/><use xlink:href="#y"/><use xlink:href="#p" x="-15.358" y="61.2"/><use xlink:href="#o" x="33.411" y="61.2"/><use xlink:href="#u" x="-241.196" y="61.2"/><path d="M238.584 141.2c-1.32 0-2.52-.9-2.52-2.52V122c0-4.68-3.9-8.58-8.58-8.58-4.62 0-8.52 3.9-8.52 8.58v16.62c0 1.68-1.26 2.64-2.64 2.64-1.26 0-2.52-.9-2.52-2.58v-26.82c0-1.74 1.26-2.52 2.52-2.52 1.2 0 2.28.66 2.58 1.98 2.34-1.86 5.28-3 8.58-3 7.44 0 13.68 6.18 13.68 13.68v16.62c0 1.68-1.2 2.58-2.58 2.58zm34.32-.06c-1.32 0-2.58-.84-2.58-2.52 0 0-3.54 3.6-9.9 3.6-9.66 0-15.06-7.92-15.06-16.98 0-9 5.4-16.92 15.06-16.92 4.2 0 7.56 1.44 9.9 3.9v-11.16c0-1.74 1.26-2.58 2.58-2.58s2.58.84 2.58 2.52v37.618c0 1.68-1.26 2.52-2.58 2.52zm-12.48-27.72c-6 0-9.9 4.68-9.9 11.82 0 7.2 3.9 11.88 9.9 11.88 6.06 0 9.9-4.68 9.9-11.88 0-7.14-3.84-11.82-9.9-11.82zm69.178 27.84c-1.26 0-2.52-.9-2.52-2.58v-27.6l-11.64 21.72c-.78 1.5-1.92 1.62-2.4 1.62-.3 0-1.56-.12-2.4-1.62l-11.58-21.6v27.48c0 1.68-1.26 2.58-2.64 2.58-1.26 0-2.52-.9-2.52-2.58v-37.5c0-1.98 1.38-2.7 2.76-2.7.9 0 1.62.42 2.16 1.5l14.22 26.46 14.28-26.46c.6-1.2 1.32-1.5 2.34-1.5 1.32 0 2.58.84 2.58 2.7v37.5c0 1.68-1.26 2.58-2.64 2.58z"/><use xlink:href="#y" x="254.443"/><use xlink:href="#p" x="239.086" y="61.2"/><use xlink:href="#o" x="287.845" y="61.2"/><use xlink:href="#q" x="240.996" y="61.2"/><use xlink:href="#y" x="380.13"/><path d="M503.17 141.32c-3.24 0-6-2.76-6-6.12v-34.138c0-1.74 1.26-2.58 2.58-2.58s2.58.84 2.58 2.52V135.2c0 .72.54 1.02.84 1.02 1.68 0 2.58 1.2 2.58 2.58 0 1.32-.9 2.52-2.58 2.52zm35.217-.12c-3.3 0-4.8-2.34-5.34-3.42-2.4 2.64-5.88 4.44-10.56 4.44-9.78 0-15.06-8.04-15.06-16.98s5.4-16.92 15.06-16.92c4.2 0 7.56 1.5 9.9 3.96v-.24c0-.66.24-2.7 2.52-2.7 1.26 0 2.64.66 2.64 2.52v23.16c0 .78.54 1.08.84 1.08 1.68 0 2.58 1.2 2.58 2.58 0 1.26-.9 2.52-2.58 2.52zm-15.898-27.78c-6 0-9.9 4.68-9.9 11.82 0 7.2 3.9 11.88 9.9 11.88 6.06 0 9.9-4.68 9.9-11.88 0-7.14-3.84-11.82-9.9-11.82z"/><use xlink:href="#v" x="89.147" y="61.2"/><path d="M591.846 122.72h-12.84v15.9c0 1.56-1.2 2.58-2.52 2.58-1.44 0-2.64-.96-2.64-2.52v-37.618c0-1.08.72-2.58 2.52-2.58h15.54c5.28 0 12.06 4.14 12.06 12.06 0 6.78-5.4 12.18-12.12 12.18zm0-19.14h-12.84v14.04h12.78a6.99 6.99 0 0 0 7.02-7.02c0-3.9-3.12-7.02-6.96-7.02z"/><use xlink:href="#y" x="524.127"/><path d="M681.425 112.762l-9.3 26.34c-.48 1.32-1.32 2.1-2.64 2.1-1.26 0-1.98-.54-2.52-2.1l-7.02-19.8-7.08 19.8c-.48 1.44-1.32 2.1-2.58 2.1-1.2 0-2.04-.66-2.52-2.1l-9.24-26.34c-.12-.36-.12-.6-.12-.96 0-1.5 1.38-2.46 2.64-2.46.96 0 1.92.48 2.34 1.68l6.96 20.04 7.08-19.62c.48-1.38 1.08-2.1 2.52-2.1 1.32 0 2.04.66 2.52 2.1l7.02 19.62 7.02-20.04c.42-1.2 1.38-1.68 2.28-1.68 1.38 0 2.76 1.02 2.76 2.52 0 .3 0 .54-.12.9z"/><use xlink:href="#w" x="93.477" y="61.2"/><use xlink:href="#v" x="262.245" y="61.2"/></g></svg>